#!OML:ASF F:\VICON\USERDATA\INSTALL\rory3\rory3.ASF
:FULLY-SPECIFIED
:DEGREES
3181
root -1.40069 17.6448 0.23502 3.57992 -0.201392 1.45033
lowerback 3.6723 -2.96683 -5.6691
upperback 0.612767 -4.14139 2.82088
thorax -0.810933 -2.06757 6.27042
lowerneck -13.5024 -12.9435 -15.0952
upperneck 18.314 -18.4133 16.0194
head 11.1365 -8.0916 5.30168
rclavicle 9.44227e-015 -7.15625e-015
rhumerus -23.3483 -12.323 -39.8182
rradius 75.1775
rwrist 34.0597
rhand -37.3753 7.3865
rfingers 7.12502
rthumb -10.4367 -22.3345
lclavicle 9.44227e-015 -7.15625e-015
lhumerus -31.5985 0.400874 65.2628
lradius 72.1681
lwrist -0.778607
lhand -23.7607 19.8062
lfingers 7.12502
lthumb 2.70848 49.7687
rfemur -13.4862 3.48545 10.8157
rtibia 32.8554
rfoot -21.7841 -9.67745
rtoes 0.790282
lfemur -13.7108 -0.921037 -17.3255
ltibia 29.4249
lfoot -14.8514 4.06325
ltoes -20.7969
3182
root -1.39439 17.6443 0.236272 3.56399 -0.382868 1.46908
lowerback 3.80461 -3.00415 -5.69343
upperback 0.551525 -4.19923 2.83113
thorax -0.937244 -2.09022 6.30751
lowerneck -12.9792 -13.2007 -15.3813
upperneck 18.1398 -18.9046 16.5244
head 11.1553 -8.321 5.45139
rclavicle -1.0635e-014 -1.35174e-014
rhumerus -23.2088 -12.4261 -39.679
rradius 75.1297
rwrist 33.8872
rhand -37.2042 7.05378
rfingers 7.12502
rthumb -10.2716 -22.6754
lclavicle -1.0635e-014 -1.35174e-014
lhumerus -31.9268 0.232262 65.2594
lradius 72.6221
lwrist -0.486555
lhand -24.1101 20.1203
lfingers 7.12502
lthumb 2.37106 50.0868
rfemur -13.5091 3.66569 10.765
rtibia 32.8508
rfoot -21.7487 -9.64586
rtoes 0.922743
lfemur -13.6754 -0.812223 -17.3763
ltibia 29.4505
lfoot -14.8802 4.07245
ltoes -20.512
3183
root -1.38627 17.6455 0.237369 3.63121 -0.592562 1.59248
lowerback 3.81449 -3.03303 -5.79067
upperback 0.461152 -4.2436 2.80725
thorax -1.02453 -2.10639 6.34297
lowerneck -12.4092 -13.4305 -15.5364
upperneck 18.02 -19.3475 16.8257
head 11.1396 -8.54124 5.52012
rclavicle -2.65378e-014 1.74931e-014
rhumerus -23.112 -12.4688 -39.5836
rradius 75.1491
rwrist 33.6455
rhand -36.9903 6.84942
rfingers 7.12502
rthumb -10.0653 -22.8899
lclavicle -2.65378e-014 1.74931e-014
lhumerus -32.1548 0.147204 65.3305
lradius 72.9512
lwrist -0.288755
lhand -23.9919 20.1844
lfingers 7.12502
lthumb 2.48522 50.1496
rfemur -13.6359 3.82878 10.5782
rtibia 32.8422
rfoot -21.6935 -9.62537
rtoes 0.801072
lfemur -13.7182 -0.723876 -17.5538
ltibia 29.4668
lfoot -14.8979 4.19154
ltoes -20.5429
3184
root -1.37796 17.6463 0.235177 3.69388 -0.813517 1.54807
lowerback 3.87493 -3.07308 -5.69569
upperback 0.360464 -4.29695 2.82078
thorax -1.16066 -2.12556 6.31299
lowerneck -11.8836 -13.5956 -15.6806
upperneck 17.902 -19.6812 17.0802
head 11.1076 -8.71427 5.59127
rclavicle 1.05853e-014 -4.77083e-015
rhumerus -23.0715 -12.4998 -39.6028
rradius 75.3036
rwrist 33.5493
rhand -36.7922 6.99813
rfingers 7.12502
rthumb -9.87417 -22.7503
lclavicle 1.05853e-014 -4.77083e-015
lhumerus -32.4622 0.0511381 65.3824
lradius 73.3022
lwrist -0.248902
lhand -23.7207 20.0509
lfingers 7.12502
lthumb 2.74712 50.0129
rfemur -13.7855 3.89204 10.5879
rtibia 32.8413
rfoot -21.5583 -9.59607
rtoes 0.303509
lfemur -13.7842 -0.597124 -17.5384
ltibia 29.4848
lfoot -14.8746 4.29397
ltoes -20.6704
3185
root -1.3743 17.6466 0.233044 3.67758 -1.06512 1.5373
lowerback 3.99413 -3.0871 -5.7226
upperback 0.328389 -4.32299 2.83207
thorax -1.25387 -2.13413 6.35036
lowerneck -11.514 -13.7931 -15.7481
upperneck 17.7898 -20.0492 17.3029
head 11.1028 -8.89153 5.62303
rclavicle 1.75924e-014 2.38542e-015
rhumerus -23.1257 -12.5032 -39.6489
rradius 75.5886
rwrist 33.372
rhand -36.6135 6.8413
rfingers 7.12502
rthumb -9.70172 -22.9153
lclavicle 1.75924e-014 2.38542e-015
lhumerus -32.8084 -0.0323538 65.5007
lradius 73.7668
lwrist -0.317508
lhand -23.7829 19.5788
lfingers 7.12502
lthumb 2.68703 49.5416
rfemur -13.852 4.12368 10.5773
rtibia 32.8349
rfoot -21.5585 -9.63556
rtoes 0.351378
lfemur -13.7552 -0.415122 -17.545
ltibia 29.5073
lfoot -14.859 4.36561
ltoes -20.758
3186
root -1.36955 17.6461 0.234562 3.64941 -1.41049 1.48889
lowerback 4.03519 -3.06779 -5.68762
upperback 0.320673 -4.29791 2.82144
thorax -1.29207 -2.12003 6.32181
lowerneck -11.0863 -13.9497 -15.7443
upperneck 17.6877 -20.3779 17.5128
head 11.0743 -9.05198 5.65199
rclavicle -5.60573e-014 -1.35174e-014
rhumerus -23.2128 -12.5382 -39.7468
rradius 75.9309
rwrist 33.2211
rhand -36.2809 6.61198
rfingers 7.12502
rthumb -9.38081 -23.1593
lclavicle -5.60573e-014 -1.35174e-014
lhumerus -33.1734 -0.172414 65.6927
lradius 74.2465
lwrist -0.116413
lhand -24.2688 18.5647
lfingers 7.12502
lthumb 2.21778 48.5329
rfemur -13.9263 4.38687 10.5965
rtibia 32.8429
rfoot -21.5254 -9.57002
rtoes 0.582375
lfemur -13.6589 -0.322467 -17.5134
ltibia 29.5079
lfoot -14.9539 4.5496
ltoes -20.5652
3187
root -1.36193 17.6466 0.236386 3.73501 -1.66142 1.44527
lowerback 4.01506 -3.09373 -5.63861
upperback 0.250038 -4.32977 2.84461
thorax -1.35109 -2.13215 6.32094
lowerneck -10.6925 -14.1066 -15.798
upperneck 17.6684 -20.6965 17.6825
head 11.0826 -9.21076 5.6766
rclavicle 6.86801e-014 1.66979e-014
rhumerus -23.272 -12.487 -39.8237
rradius 76.2808
rwrist 33.0949
rhand -36.1343 6.79729
rfingers 7.12502
rthumb -9.23941 -22.9803
lclavicle 6.86801e-014 1.66979e-014
lhumerus -33.5543 -0.207476 65.948
lradius 74.638
lwrist 0.127822
lhand -24.4412 17.4292
lfingers 7.12502
lthumb 2.05121 47.3991
rfemur -14.0883 4.45979 10.5866
rtibia 32.8483
rfoot -21.3799 -9.47458
rtoes 0.778733
lfemur -13.6917 -0.176959 -17.5031
ltibia 29.4947
lfoot -14.973 4.63017
ltoes -20.7715
3188
root -1.35394 17.6476 0.238134 3.95004 -1.98522 1.62007
lowerback 3.74991 -3.11083 -5.81918
upperback 0.219497 -4.34836 2.80451
thorax -1.22121 -2.14465 6.36453
lowerneck -10.4685 -14.2659 -15.828
upperneck 17.7046 -21.0018 17.8202
head 11.135 -9.35237 5.67919
rclavicle 3.18055e-015 1.59028e-015
rhumerus -23.2983 -12.4084 -39.9988
rradius 76.682
rwrist 32.9721
rhand -35.9585 6.54876
rfingers 7.12502
rthumb -9.06976 -23.2362
lclavicle 3.18055e-015 1.59028e-015
lhumerus -33.8584 -0.172205 66.1621
lradius 75.123
lwrist -0.175051
lhand -24.2874 17.6664
lfingers 7.12502
lthumb 2.1998 47.6348
rfemur -14.4224 4.46657 10.3043
rtibia 32.8462
rfoot -21.1394 -9.30167
rtoes 0.478183
lfemur -13.8789 -0.0540485 -17.7474
ltibia 29.4893
lfoot -14.9748 4.81832
ltoes -20.7224
3189
root -1.34521 17.6485 0.240975 4.08164 -2.24258 1.63203
lowerback 3.62642 -3.14324 -5.82346
upperback 0.197777 -4.38572 2.81309
thorax -1.16788 -2.16486 6.3692
lowerneck -10.3026 -14.4242 -15.7893
upperneck 17.7323 -21.287 17.8766
head 11.172 -9.48383 5.64237
rclavicle -3.29983e-014 -1.27222e-014
rhumerus -23.3257 -12.402 -40.2582
rradius 77.1365
rwrist 32.8408
rhand -35.8065 6.74644
rfingers 7.12502
rthumb -8.92305 -23.0449
lclavicle -3.29983e-014 -1.27222e-014
lhumerus -34.1712 -0.204418 66.435
lradius 75.5975
lwrist -0.714513
lhand -23.8645 18.37
lfingers 7.12502
lthumb 2.60823 48.3338
rfemur -14.6261 4.52937 10.214
rtibia 32.8273
rfoot -21.0965 -9.06104
rtoes 0.827853
lfemur -13.9699 0.0594739 -17.8052
ltibia 29.49
lfoot -14.9798 4.96449
ltoes -20.5764
3190
root -1.3386 17.6488 0.245582 4.10364 -2.49232 1.48557
lowerback 3.66401 -3.17995 -5.68952
upperback 0.157166 -4.43079 2.87066
thorax -1.22972 -2.18476 6.35928
lowerneck -10.1056 -14.5635 -15.6984
upperneck 17.835 -21.5354 17.7946
head 11.1967 -9.60663 5.5593
rclavicle 2.57923e-014 -3.97569e-015
rhumerus -23.4813 -12.1066 -40.5062
rradius 77.7065
rwrist 32.6686
rhand -35.6459 6.42576
rfingers 7.12502
rthumb -8.76809 -23.3721
lclavicle 2.57923e-014 -3.97569e-015
lhumerus -34.6049 -0.289289 66.7716
lradius 76.0684
lwrist -0.890607
lhand -23.3614 18.1384
lfingers 7.12502
lthumb 3.09405 48.0957
rfemur -14.6959 4.78061 10.3409
rtibia 32.8238
rfoot -21.091 -9.06464
rtoes 0.830248
lfemur -13.938 0.167664 -17.6756
ltibia 29.493
lfoot -15.0273 5.07929
ltoes -20.6863
3191
root -1.33075 17.6479 0.248827 4.09389 -2.71503 1.40436
lowerback 3.69355 -3.18789 -5.60804
upperback 0.166145 -4.43881 2.91185
thorax -1.2386 -2.18919 6.35831
lowerneck -10.1987 -14.7869 -15.4538
upperneck 18.1876 -21.8492 17.3683
head 11.3114 -9.7499 5.29953
rclavicle -5.28767e-014 0
rhumerus -23.6706 -11.9168 -40.7497
rradius 78.2974
rwrist 32.6613
rhand -35.7656 6.0908
rfingers 7.12502
rthumb -8.88362 -23.7022
lclavicle -5.28767e-014 0
lhumerus -35.0469 -0.376834 67.1973
lradius 76.5487
lwrist -1.122
lhand -23.0429 17.3617
lfingers 7.12502
lthumb 3.40168 47.3143
rfemur -14.7186 4.90653 10.3992
rtibia 32.8105
rfoot -21.0013 -9.01391
rtoes 0.982453
lfemur -13.8794 0.299896 -17.6191
ltibia 29.5165
lfoot -15.0559 5.10826
ltoes -20.7188
3192
root -1.32318 17.645 0.247073 4.14167 -2.91253 1.39521
lowerback 3.73865 -3.19502 -5.59762
upperback 0.152314 -4.44984 2.93936
thorax -1.27513 -2.19309 6.3854
lowerneck -10.1804 -14.9751 -15.3073
upperneck 18.2741 -22.1115 17.1501
head 11.338 -9.87481 5.14413
rclavicle -8.22969e-014 2.78299e-014
rhumerus -23.8672 -11.7109 -40.9851
rradius 78.8922
rwrist 32.6494
rhand -35.6098 6.0589
rfingers 7.12502
rthumb -8.73326 -23.7404
lclavicle -8.22969e-014 2.78299e-014
lhumerus -35.4615 -0.353937 67.658
lradius 76.9883
lwrist -1.536
lhand -22.8983 16.9885
lfingers 7.12502
lthumb 3.54128 46.9388
rfemur -14.848 5.06971 10.3657
rtibia 32.816
rfoot -20.9016 -8.93419
rtoes 1.52471
lfemur -13.9097 0.359182 -17.6423
ltibia 29.5447
lfoot -15.1114 5.25824
ltoes -20.6897
